<?xml version="1.0" standalone="no"?>
<!DOCTYPE svg PUBLIC "-//W3C//DTD SVG 20010904//EN"
 "http://www.w3.org/TR/2001/REC-SVG-20010904/DTD/svg10.dtd">
<svg version="1.0" xmlns="http://www.w3.org/2000/svg"
 width="512.000000pt" height="512.000000pt" viewBox="0 0 512.000000 512.000000"
 preserveAspectRatio="xMidYMid meet">
<metadata>
Created by potrace 1.16, written by Peter Selinger 2001-2019
</metadata>
<g transform="translate(0.000000,512.000000) scale(0.100000,-0.100000)"
fill="#000000" stroke="none">
<path d="M528 5106 c-102 -37 -182 -109 -227 -205 l-26 -56 0 -2285 0 -2285
27 -57 c35 -76 95 -138 170 -179 l63 -34 1385 0 1385 0 57 28 c108 53 182 148
207 265 8 37 11 340 11 1012 l0 960 615 0 c602 0 615 0 635 20 20 20 20 33 20
1105 0 1072 0 1085 -20 1105 -20 20 -33 20 -635 20 l-615 0 0 125 c0 68 -5
148 -11 177 -25 117 -99 212 -207 265 l-57 28 -1370 2 c-1109 2 -1377 0 -1407
-11z m2753 -157 c55 -25 107 -85 124 -142 10 -33 15 -93 15 -169 l0 -118 -70
0 -70 0 0 124 c0 110 -2 126 -21 150 l-20 26 -1315 0 c-1301 0 -1314 0 -1334
-20 -20 -20 -20 -33 -20 -1180 0 -1147 0 -1160 20 -1180 31 -31 93 -27 119 6
21 27 21 29 21 1125 l0 1099 1195 0 1195 0 0 -75 0 -75 -769 0 -770 0 -20 -26
c-21 -27 -21 -29 -21 -1099 0 -1070 0 -1072 21 -1099 l20 -26 770 0 769 0 0
-610 0 -610 -1195 0 -1195 0 0 584 c0 575 0 584 -21 610 -26 33 -88 37 -119 6
-20 -20 -20 -33 -20 -665 0 -632 0 -645 20 -665 20 -20 33 -20 1334 -20 l1315
0 20 26 c21 26 21 34 21 685 l0 659 70 0 70 0 0 -953 c0 -1055 2 -1021 -64
-1089 -18 -19 -51 -43 -72 -54 -38 -18 -78 -19 -1364 -19 l-1325 0 -41 22
c-47 25 -91 73 -111 120 -20 48 -20 4478 0 4526 31 73 95 124 172 138 22 4
623 6 1335 5 1174 -1 1298 -3 1331 -17z m1409 -602 c0 -36 -46 -119 -82 -148
-279 -220 -1311 -996 -1338 -1005 -50 -18 -109 -17 -155 5 -35 16 -1280 956
-1343 1014 -28 26 -57 80 -67 125 l-7 32 1496 0 1496 0 0 -23z m-2402 -735
c225 -171 280 -218 270 -227 -7 -7 -157 -122 -333 -255 -176 -134 -366 -279
-422 -322 l-103 -79 0 666 0 665 153 -116 c83 -64 279 -213 435 -332z m2400
-542 l-3 -332 -431 328 c-419 320 -430 329 -410 345 12 9 206 157 431 329
l410 312 3 -325 c1 -179 1 -475 0 -657z m-1825 105 c179 -136 237 -161 361
-153 98 6 153 34 323 162 l142 108 443 -338 c244 -185 458 -349 476 -363 36
-29 82 -112 82 -148 l0 -23 -1496 0 -1496 0 7 33 c10 44 39 98 67 124 25 23
930 713 935 713 2 0 72 -52 156 -115z"/>
<path d="M1519 730 c-131 -70 -167 -239 -72 -349 71 -83 64 -82 487 -79 l372
3 42 28 c23 15 54 46 69 69 25 37 28 51 28 123 0 72 -3 86 -28 123 -15 23 -46
54 -69 69 l-42 28 -375 2 c-353 2 -378 1 -412 -17z m721 -139 c33 -9 55 -50
46 -85 -13 -51 -44 -56 -365 -56 -160 0 -301 4 -315 10 -14 5 -33 21 -42 36
-16 24 -16 29 -3 53 28 49 42 51 359 50 162 -1 306 -4 320 -8z"/>
</g>
</svg>
