<?xml version="1.0" standalone="no"?>
<!DOCTYPE svg PUBLIC "-//W3C//DTD SVG 20010904//EN"
 "http://www.w3.org/TR/2001/REC-SVG-20010904/DTD/svg10.dtd">
<svg version="1.0" xmlns="http://www.w3.org/2000/svg"
 width="512.000000pt" height="512.000000pt" viewBox="0 0 512.000000 512.000000"
 preserveAspectRatio="xMidYMid meet">
<metadata>
Created by potrace 1.16, written by Peter Selinger 2001-2019
</metadata>
<g transform="translate(0.000000,512.000000) scale(0.100000,-0.100000)"
fill="#000000" stroke="none">
<path d="M2316 5105 c-513 -86 -946 -417 -1155 -882 -121 -269 -141 -411 -141
-1005 l0 -397 -47 -48 c-52 -53 -96 -134 -112 -204 -15 -62 -15 -1785 0 -1865
15 -87 45 -160 95 -235 74 -111 156 -171 331 -243 237 -97 525 -168 843 -208
142 -18 718 -18 860 0 517 65 983 222 1120 379 78 89 129 193 149 307 15 80
15 1803 0 1865 -16 70 -60 151 -111 204 l-48 48 0 397 c0 507 -12 644 -76 839
-128 392 -407 719 -772 902 -146 74 -287 119 -454 146 -114 18 -372 18 -482 0z
m524 -180 c364 -80 675 -300 882 -621 75 -117 143 -288 179 -452 20 -88 22
-135 26 -527 l5 -430 -85 3 -85 3 -5 417 c-4 375 -7 427 -26 513 -53 245 -169
450 -352 624 -224 214 -505 325 -819 325 -314 0 -595 -111 -819 -325 -183
-174 -299 -379 -352 -624 -19 -86 -22 -138 -26 -513 l-5 -417 -85 -3 -85 -3 5
430 c4 392 6 439 26 527 126 570 551 982 1121 1084 102 18 398 12 500 -11z
m-80 -335 c377 -77 677 -354 785 -724 36 -126 45 -250 45 -627 l0 -339 -1030
0 -1030 0 0 339 c0 186 5 384 10 440 35 341 221 628 517 797 215 122 463 163
703 114z m1190 -1884 c58 -30 109 -87 130 -143 19 -52 20 -79 20 -926 0 -951
1 -932 -57 -1039 -32 -58 -113 -138 -173 -168 -190 -97 -525 -190 -850 -237
-180 -25 -740 -25 -920 0 -333 48 -683 147 -862 244 -57 31 -137 113 -167 171
-51 101 -51 92 -51 1029 0 847 1 874 20 926 27 73 93 134 169 158 14 4 629 7
1366 6 1285 -2 1341 -3 1375 -21z"/>
<path d="M3805 2548 c-37 -20 -45 -40 -45 -118 0 -69 3 -79 25 -100 33 -31 89
-31 119 -1 18 18 21 33 21 102 0 76 -2 82 -28 105 -30 26 -60 30 -92 12z"/>
<path d="M2458 2120 c-65 -17 -151 -66 -201 -116 -159 -160 -163 -423 -9 -587
l50 -52 4 -160 c5 -176 12 -205 68 -269 53 -59 102 -81 190 -81 88 0 137 22
190 81 56 64 63 93 68 269 l4 160 50 52 c196 209 131 546 -130 671 -63 30 -85
35 -160 38 -48 2 -104 -1 -124 -6z m224 -193 c87 -51 131 -125 131 -221 0 -78
-36 -152 -97 -198 -68 -52 -66 -46 -66 -230 0 -192 -8 -227 -59 -247 -25 -11
-37 -11 -62 0 -51 20 -59 55 -59 247 0 183 1 180 -63 227 -160 119 -120 370
70 441 56 21 152 12 205 -19z"/>
<path d="M3785 2105 l-25 -24 0 -376 0 -376 25 -24 c43 -44 112 -29 135 29 14
37 14 705 0 742 -23 58 -92 73 -135 29z"/>
<path d="M1223 1766 l-28 -24 -3 -479 c-2 -263 0 -493 3 -511 13 -70 91 -96
140 -47 l25 24 0 506 0 506 -25 24 c-31 32 -75 32 -112 1z"/>
</g>
</svg>
